HIERARCHY
ROOT Pelvis
{
	OFFSET 0.000000 0.000000 0.000000
	CHANNELS 6 Xposition Yposition Zposition Xrotation Yrotation Zrotation
	JOINT LeftUpLeg_virtual
	{
		OFFSET 0.000000 0.000000 0.000000
		CHANNELS 3 Xrotation Yrotation Zrotation
		JOINT LeftUpLeg
		{
			OFFSET 18.735201 -5.666702 -4.541200
			CHANNELS 3 Xrotation Yrotation Zrotation
			JOINT LeftLeg
			{
				OFFSET -0.021200 -31.938179 0.493100
				CHANNELS 3 Xrotation Yrotation Zrotation
				JOINT LeftFoot
				{
					OFFSET 0.021200 -31.938179 -4.336299
					CHANNELS 3 Xrotation Yrotation Zrotation
					JOINT LeftToeBase
					{
						OFFSET 0.943001 -26.722000 15.023500
						CHANNELS 3 Xrotation Yrotation Zrotation
						End Site
						{
							OFFSET 0 0 0
						}
					}
				}
			}
		}
	}
	JOINT RightUpLeg_virtual
	{
		OFFSET 0.000000 0.000000 0.000000
		CHANNELS 3 Xrotation Yrotation Zrotation
		JOINT RightUpLeg
		{
			OFFSET -18.735201 -5.666702 -4.541200
			CHANNELS 3 Xrotation Yrotation Zrotation
			JOINT RightLeg
			{
				OFFSET 0.018946 -31.938133 0.493100
				CHANNELS 3 Xrotation Yrotation Zrotation
				JOINT RightFoot
				{
					OFFSET -0.018946 -31.938126 -4.336299
					CHANNELS 3 Xrotation Yrotation Zrotation
					JOINT RightToeBase
					{
						OFFSET -0.943001 -26.722004 15.023500
						CHANNELS 3 Xrotation Yrotation Zrotation
						End Site
						{
							OFFSET 0 0 0
						}
					}
				}
			}
		}
	}
	JOINT Hips_virtual
	{
		OFFSET 0.000000 0.000000 0.000000
		CHANNELS 3 Xrotation Yrotation Zrotation
		JOINT Hips
		{
			OFFSET -0.000000 -0.000000 -0.000000
			CHANNELS 3 Xrotation Yrotation Zrotation
			JOINT Spine
			{
				OFFSET 0.000000 10.199997 -0.299500
				CHANNELS 3 Xrotation Yrotation Zrotation
				JOINT Spine1
				{
					OFFSET 0.000000 11.900002 -1.516600
					CHANNELS 3 Xrotation Yrotation Zrotation
					JOINT Spine2
					{
						OFFSET 0.000000 13.600006 -2.842500
						CHANNELS 3 Xrotation Yrotation Zrotation
						JOINT Neck_virtual
						{
							OFFSET 0.000000 0.000000 0.000000
							CHANNELS 3 Xrotation Yrotation Zrotation
							JOINT Neck
							{
								OFFSET 0.000000 9.624100 -2.890100
								CHANNELS 3 Xrotation Yrotation Zrotation
								JOINT Head
								{
									OFFSET 0.000000 14.068802 -1.351900
									CHANNELS 3 Xrotation Yrotation Zrotation
									End Site
									{
										OFFSET 0 0 0
									}
								}
							}
						}
						JOINT LeftShoulder_virtual
						{
							OFFSET 0.000000 0.000000 0.000000
							CHANNELS 3 Xrotation Yrotation Zrotation
							JOINT LeftShoulder
							{
								OFFSET 15.263000 10.923401 -0.547700
								CHANNELS 3 Xrotation Yrotation Zrotation
								JOINT LeftArm
								{
									OFFSET 25.438599 -2.830597 -13.032500
									CHANNELS 3 Xrotation Yrotation Zrotation
									JOINT LeftForeArm
									{
										OFFSET 29.960503 0.000000 0.000000
										CHANNELS 3 Xrotation Yrotation Zrotation
										JOINT LeftHand
										{
											OFFSET 27.849251 0.000000 0.000000
											CHANNELS 3 Xrotation Yrotation Zrotation
											End Site
											{
												OFFSET 0 0 0
											}
										}
									}
								}
							}
						}
						JOINT RightShoulder_virtual
						{
							OFFSET 0.000000 0.000000 0.000000
							CHANNELS 3 Xrotation Yrotation Zrotation
							JOINT RightShoulder
							{
								OFFSET -15.263000 10.923401 -0.547700
								CHANNELS 3 Xrotation Yrotation Zrotation
								JOINT RightArm
								{
									OFFSET -25.438599 -2.830597 -13.032500
									CHANNELS 3 Xrotation Yrotation Zrotation
									JOINT RightForeArm
									{
										OFFSET -29.960503 0.000000 0.000000
										CHANNELS 3 Xrotation Yrotation Zrotation
										JOINT RightHand
										{
											OFFSET -27.849251 0.000000 0.000000
											CHANNELS 3 Xrotation Yrotation Zrotation
											End Site
											{
												OFFSET 0 0 0
											}
										}
									}
								}
							}
						}
					}
				}
			}
		}
	}
}
MOTION
Frames: 11
Frame Time: 0.03333333
-4.295439 69.906837 -77.428947 0.000000 0.000000 0.000000 39.440050 -70.884222 33.586117 -73.529889 -17.705167 19.492311 56.251683 -8.136214 12.074559 12.651143 -4.431378 -13.698324 0.000000 0.000000 0.000000 36.943438 -69.120032 30.679243 -19.007421 5.609797 -34.399602 53.024941 -6.962235 -2.600065 -11.809420 -26.416554 41.020535 0.000000 0.000000 0.000000 35.551910 -69.155980 30.264087 0.934871 0.638591 -1.574291 2.345206 6.413575 -4.542366 -1.446256 3.192144 0.026932 0.000000 0.000000 0.000000 -1.049741 1.999220 0.266716 5.326614 0.832161 -1.189871 0.000000 0.000000 0.000000 -0.825493 2.288609 0.501555 3.783169 2.314626 -13.359807 -59.957593 -35.351819 -58.544106 2.233282 -75.462170 3.500210 0.000000 0.000000 0.000000 -1.071441 2.717645 0.363434 -11.832627 1.314881 -9.565513 -98.586349 38.894669 115.840200 6.656947 36.394537 -2.683533 0.000000 0.000000 0.000000 
-3.880209 71.999107 -83.644302 0.000000 0.000000 0.000000 38.109512 -70.503248 31.800623 -72.223240 -17.071909 18.867815 52.882224 -7.023447 11.340242 17.349094 -1.449745 -10.169343 0.000000 0.000000 0.000000 35.992495 -69.790060 29.497360 -23.806179 3.870878 -31.132986 58.339405 -5.929474 -1.287326 -13.670205 -25.730161 39.245444 0.000000 0.000000 0.000000 36.082165 -69.418833 30.172176 1.037474 0.361542 -1.254076 2.533348 5.735353 -3.817212 -1.419385 2.582068 0.300284 0.000000 0.000000 0.000000 -1.084719 1.355528 0.525311 5.322798 0.948558 -1.227987 0.000000 0.000000 0.000000 -0.784390 1.635090 0.685328 3.732053 2.629238 -13.002335 -59.351865 -35.171291 -58.835420 1.547994 -75.054073 2.960015 0.000000 0.000000 0.000000 -1.040445 2.047485 0.569346 -11.903857 1.003566 -9.559662 -99.705592 40.293741 117.267176 6.321536 36.261532 -2.497633 0.000000 0.000000 0.000000 
-3.427921 74.066208 -89.651367 0.000000 0.000000 0.000000 35.292042 -69.286737 28.357318 -71.949725 -15.584963 17.697203 50.485989 -7.137913 10.027974 20.023439 -0.355682 -9.468899 0.000000 0.000000 0.000000 33.558973 -69.563031 26.578479 -27.565694 0.717857 -26.994603 60.319470 -5.387155 0.202118 -16.037685 -25.235102 36.449533 0.000000 0.000000 0.000000 35.158829 -68.759815 28.324398 1.107362 0.006705 -1.177692 3.112601 4.953419 -3.011878 -1.380699 1.906799 0.540832 0.000000 0.000000 0.000000 -1.226250 0.602326 0.745124 5.207688 1.080340 -1.182786 0.000000 0.000000 0.000000 -0.798655 0.883560 0.841721 3.653684 2.854896 -12.408954 -59.111824 -35.033550 -59.313936 0.748928 -74.549725 2.284410 0.000000 0.000000 0.000000 -0.980479 1.272257 0.690120 -12.035611 0.444503 -9.414776 -101.430256 41.362133 118.733331 5.786205 35.130255 -2.163987 0.000000 0.000000 0.000000 
-2.909046 75.875603 -94.913605 0.000000 0.000000 0.000000 32.451520 -67.567967 24.807770 -72.580083 -13.445935 16.550093 48.946348 -8.271083 8.246630 21.454550 -1.062252 -11.180205 0.000000 0.000000 0.000000 30.893591 -68.528039 23.226448 -30.035470 -3.339768 -23.180622 59.826112 -5.443157 1.753788 -19.149887 -25.063615 32.884506 0.000000 0.000000 0.000000 33.407104 -67.441124 25.598779 1.040710 -0.446878 -1.263529 3.884780 4.274753 -2.262484 -1.344540 1.352981 0.686704 0.000000 0.000000 0.000000 -1.394420 -0.058249 0.851196 5.031562 1.199656 -1.093080 0.000000 0.000000 0.000000 -0.866378 0.232349 0.922124 3.585495 3.050655 -11.680258 -59.028230 -34.821230 -59.667276 -0.022392 -74.426604 1.593689 0.000000 0.000000 0.000000 -0.905676 0.593237 0.696081 -12.190280 -0.203638 -9.113019 -103.428592 41.861290 120.173613 5.186598 33.365372 -1.800681 0.000000 0.000000 0.000000 
-2.281046 77.259689 -99.116379 0.000000 0.000000 0.000000 30.403873 -65.888048 22.111020 -73.865607 -11.189629 15.664639 48.243702 -9.640513 6.428720 22.681832 -2.233290 -13.660756 0.000000 0.000000 0.000000 29.067967 -67.149017 20.750053 -31.765888 -7.113038 -20.645625 58.511123 -5.846996 3.078655 -21.864008 -24.753885 29.230228 0.000000 0.000000 0.000000 31.736614 -65.889633 23.136052 0.828644 -0.977187 -1.452607 4.617385 3.837588 -1.631613 -1.350285 1.042018 0.724565 0.000000 0.000000 0.000000 -1.541296 -0.479292 0.822197 4.861231 1.294177 -0.994404 0.000000 0.000000 0.000000 -0.979506 -0.161713 0.916051 3.547148 3.252303 -10.957318 -58.882562 -34.328428 -59.687507 -0.714856 -74.693692 0.935985 0.000000 0.000000 0.000000 -0.828552 0.161997 0.593036 -12.289791 -0.796592 -8.646722 -105.170174 41.812933 121.431037 4.651266 31.561170 -1.512450 0.000000 0.000000 0.000000 
-1.629952 78.061417 -102.046951 0.000000 0.000000 0.000000 29.728993 -64.918079 20.881548 -75.075076 -9.373248 14.964121 48.053168 -10.699461 5.027720 24.314755 -2.922822 -15.574664 0.000000 0.000000 0.000000 28.872190 -66.045259 19.955822 -33.381778 -9.520591 -19.439391 57.631012 -6.149814 3.834195 -22.948525 -23.904498 26.768737 0.000000 0.000000 0.000000 30.829889 -64.728118 21.761232 0.477506 -1.550467 -1.602284 5.114148 3.731402 -1.122519 -1.382683 1.016459 0.665794 0.000000 0.000000 0.000000 -1.636631 -0.614050 0.681560 4.746389 1.358320 -0.923899 0.000000 0.000000 0.000000 -1.104494 -0.245812 0.834725 3.549836 3.460612 -10.359265 -58.582089 -33.573433 -59.394922 -1.257896 -75.107451 0.377397 0.000000 0.000000 0.000000 -0.771906 0.028034 0.419148 -12.292791 -1.204810 -8.118279 -106.321914 41.428010 122.289292 4.256743 30.161630 -1.314582 0.000000 0.000000 0.000000 
-1.014729 78.327644 -103.502502 0.000000 0.000000 0.000000 30.956794 -65.033421 21.609701 -75.690367 -8.417850 14.144520 48.016059 -11.364035 4.333498 26.487088 -2.879288 -16.441770 0.000000 0.000000 0.000000 30.039117 -65.655931 20.666375 -35.175860 -10.340729 -19.247155 57.552233 -6.189351 3.891349 -22.692496 -22.630775 25.744074 0.000000 0.000000 0.000000 30.971906 -64.374970 21.753512 0.141771 -2.038181 -1.646703 5.278980 3.913227 -0.716183 -1.460737 1.212506 0.564617 0.000000 0.000000 0.000000 -1.701320 -0.510601 0.497570 4.710002 1.400368 -0.911954 0.000000 0.000000 0.000000 -1.200976 -0.096574 0.740194 3.592811 3.570055 -10.010592 -58.233858 -32.755378 -58.984530 -1.546546 -75.328394 0.024368 0.000000 0.000000 0.000000 -0.719426 0.132108 0.239953 -12.207938 -1.370994 -7.695984 -106.666320 40.882958 122.506614 4.034540 29.329331 -1.206887 0.000000 0.000000 0.000000 
-0.551447 78.085846 -103.916306 0.000000 0.000000 0.000000 33.638111 -66.051536 23.915023 -75.846450 -8.405026 13.270985 48.242080 -11.604158 4.256476 28.830573 -2.287446 -16.401881 0.000000 0.000000 0.000000 32.292660 -66.086779 22.658779 -36.629171 -10.098785 -19.314725 57.613096 -6.266772 3.514874 -22.811713 -21.309632 25.117391 0.000000 0.000000 0.000000 32.131355 -64.891346 22.968348 -0.121082 -2.002002 -1.577592 5.205008 4.247844 -0.414920 -1.566637 1.467231 0.470716 0.000000 0.000000 0.000000 -1.794148 -0.318793 0.338621 4.740384 1.431434 -0.944815 0.000000 0.000000 0.000000 -1.263584 0.133873 0.678568 3.647403 3.481106 -9.965990 -57.858963 -32.041333 -58.598344 -1.401662 -75.411080 0.059227 0.000000 0.000000 0.000000 -0.701516 0.328542 0.114408 -12.056868 -1.397810 -7.509257 -106.382539 40.328077 122.198272 3.944266 28.797399 -1.152593 0.000000 0.000000 0.000000 
-0.400423 77.557274 -103.632187 0.000000 0.000000 0.000000 37.097134 -67.513797 27.188181 -75.879618 -8.970199 12.734887 48.622699 -11.519110 4.430685 30.877175 -1.564294 -16.053077 0.000000 0.000000 0.000000 35.336660 -67.065955 25.487671 -37.208180 -9.560329 -19.171518 57.128003 -6.597450 2.987925 -24.726782 -20.441107 24.227417 0.000000 0.000000 0.000000 34.123601 -65.947662 25.018192 -0.192374 -1.690599 -1.551561 4.983049 4.591402 -0.212278 -1.673239 1.658933 0.415804 0.000000 0.000000 0.000000 -1.926744 -0.179473 0.254767 4.811164 1.461772 -1.006352 0.000000 0.000000 0.000000 -1.294545 0.282610 0.680007 3.692631 3.200984 -10.185282 -57.442615 -31.558373 -58.233339 -0.782583 -75.564104 0.537616 0.000000 0.000000 0.000000 -0.724066 0.471473 0.088304 -11.895558 -1.366961 -7.677817 -105.756812 39.778120 121.574116 3.986977 28.341149 -1.141445 0.000000 0.000000 0.000000 
-0.597345 77.073105 -103.084427 0.000000 0.000000 0.000000 40.065497 -68.693787 30.158034 -76.164764 -9.641081 12.842065 48.893288 -11.181220 4.469821 32.381302 -0.956889 -15.743572 0.000000 0.000000 0.000000 37.917587 -67.975429 27.973480 -36.892235 -9.167601 -18.844946 56.043078 -7.101703 2.481491 -27.907907 -20.029777 23.379058 0.000000 0.000000 0.000000 36.480553 -66.952144 27.273468 -0.107030 -0.961870 -1.547820 4.745185 4.782356 -0.062834 -1.754027 1.704583 0.410509 0.000000 0.000000 0.000000 -2.042720 -0.176741 0.262626 4.895372 1.491703 -1.067298 0.000000 0.000000 0.000000 -1.276408 0.266857 0.749202 3.735693 2.810031 -10.609663 -57.010544 -31.163920 -57.747487 0.303642 -75.857228 1.488707 0.000000 0.000000 0.000000 -0.767727 0.469614 0.154689 -11.757431 -1.310240 -8.157885 -105.097097 39.190454 120.944099 4.126501 27.852096 -1.179918 0.000000 0.000000 0.000000 
-1.064333 76.760109 -102.748428 0.000000 0.000000 0.000000 41.341383 -69.204699 31.516282 -76.673156 -10.111482 13.574761 48.880225 -10.694016 4.264253 33.421038 -0.533791 -15.541756 0.000000 0.000000 0.000000 39.207519 -68.366601 29.202477 -36.120506 -8.985100 -18.494766 54.679127 -7.421268 1.914127 -30.293149 -19.615496 23.380825 0.000000 0.000000 0.000000 38.302741 -67.451677 28.821797 0.051863 -0.203723 -1.659553 4.575983 4.759617 0.071694 -1.745786 1.601807 0.430358 0.000000 0.000000 0.000000 -2.104553 -0.338383 0.344443 4.968409 1.511246 -1.095693 0.000000 0.000000 0.000000 -1.221153 0.081462 0.843026 3.767210 2.435533 -11.104534 -56.604377 -30.722830 -57.067204 1.661644 -76.187058 2.775193 0.000000 0.000000 0.000000 -0.852986 0.312831 0.273356 -11.639504 -1.250645 -8.772079 -104.815612 38.672193 120.718649 4.330893 27.341078 -1.264786 0.000000 0.000000 0.000000 
